<?xml version="1.0" encoding="UTF-8" standalone="no"?>
<!-- Created with Inkscape (http://www.inkscape.org/) -->

<svg
   width="155mm"
   height="130mm"
   viewBox="0 0 155 130"
   version="1.1"
   id="svg5"
   inkscape:version="1.1.1 (3bf5ae0d25, 2021-09-20)"
   sodipodi:docname="fuflo_hair.svg"
   xmlns:inkscape="http://www.inkscape.org/namespaces/inkscape"
   xmlns:sodipodi="http://sodipodi.sourceforge.net/DTD/sodipodi-0.dtd"
   xmlns="http://www.w3.org/2000/svg"
   xmlns:svg="http://www.w3.org/2000/svg">
  <sodipodi:namedview
     id="namedview7"
     pagecolor="#ffffff"
     bordercolor="#666666"
     borderopacity="1.0"
     inkscape:pageshadow="2"
     inkscape:pageopacity="0.0"
     inkscape:pagecheckerboard="0"
     inkscape:document-units="mm"
     showgrid="false"
     width="150mm"
     inkscape:zoom="1.0230034"
     inkscape:cx="124.63302"
     inkscape:cy="195.01402"
     inkscape:window-width="1920"
     inkscape:window-height="1001"
     inkscape:window-x="-9"
     inkscape:window-y="-9"
     inkscape:window-maximized="1"
     inkscape:current-layer="layer1"
     height="130mm" />
  <defs
     id="defs2" />
  <g
     inkscape:label="Слой 1"
     inkscape:groupmode="layer"
     id="layer1">
    <path
       style="fill:none;stroke:#000000;stroke-width:3.065;stroke-linecap:butt;stroke-linejoin:miter;stroke-miterlimit:4;stroke-dasharray:none;stroke-opacity:1"
       d="M 19.656175,36.208742 C 17.32847,29.484261 17.069836,28.70836 17.069836,28.70836 c 0,0 13.966229,11.897159 11.638523,4.396777 -2.327704,-7.500385 -12.155791,-5.689947 -1.810436,-6.724481 10.345354,-1.034537 12.155792,0.517266 13.448962,1.551803 1.293169,1.034536 6.207212,4.396777 6.207212,4.396777 0,0 6.465848,-2.327707 9.31082,-8.793553 2.844974,-6.465848 -5.431312,-12.155793 2.844974,-6.465848 8.276283,5.689946 8.276283,5.172678 9.569453,8.534917 1.293169,3.362243 1.034536,9.569455 7.759017,5.431314 6.724481,-4.138144 1.551802,-5.94858 14.483498,-6.207214 12.931691,-0.258634 11.121261,-2.069071 18.104371,2.327705 6.98312,4.396775 6.72448,6.983114 7.50038,8.276283 0.77591,1.29317 -28.966994,5.172679 -6.20721,1.810438 22.75978,-3.36224 25.08749,-3.620873 25.08749,-3.620873 0,0 6.46584,-0.775904 -5.43131,-4.138144 -11.89716,-3.36224 2.3277,-6.983114 -14.4835,-3.36224 -16.811203,3.620875 -9.31082,3.103607 -20.173447,4.65541 C 84.056011,32.329236 69.31388,39.829617 82.762842,32.329236 96.211807,24.828852 110.6953,22.759781 103.19492,19.138907 95.694534,15.518032 118.19569,1.2931693 93.108195,15.000764 68.020711,28.70836 71.124316,29.225628 66.727541,29.742896 c -4.396777,0.517269 -6.207215,7.500382 -5.172678,0.517269 1.034534,-6.983116 15.000764,-18.880275 4.914043,-15.776668 -10.086721,3.103606 -7.500382,-7.5003822 -12.414425,4.396776 -4.914045,11.897158 -5.431313,13.448963 -5.431313,13.448963 0,0 4.914045,5.431311 -7.759015,-4.65541 C 28.191093,17.587103 26.122022,7.2417484 29.225627,16.552568 c 3.103607,9.31082 5.172678,8.276284 5.431311,12.414427 0.258636,4.138142 10.603989,3.362241 -2.069071,6.465845 -12.673058,3.103608 -15.000763,3.103608 -15.000763,3.103608 l 27.41519,-26.63929 c 0,0 7.241749,-9.8280869 1.29317,2.586339 -5.948579,12.414425 -11.897159,18.363004 -8.276286,18.104371 3.620876,-0.258632 10.60399,0 27.156558,-6.207212 16.552569,-6.207214 22.501148,-6.724482 25.604756,-7.500383 3.103607,-0.775902 14.742138,-4.138142 -7.759018,5.948579 C 60.520326,34.915575 49.916337,46.812731 60.778962,34.915575 71.641584,23.018415 76.814262,18.104371 76.038361,16.0353"
       id="path9878" />
    <path
       style="fill:none;stroke:#000000;stroke-width:1.765;stroke-linecap:butt;stroke-linejoin:miter;stroke-miterlimit:4;stroke-dasharray:none;stroke-opacity:1"
       d="m 144.57634,41.898686 c 2.32771,-6.724481 2.58634,-7.500382 2.58634,-7.500382 0,0 -13.96623,11.897159 -11.63852,4.396777 2.3277,-7.500385 12.15579,-5.689947 1.81044,-6.724481 -10.34536,-1.034537 -12.1558,0.517266 -13.44897,1.551803 -1.29317,1.034536 -6.20721,4.396777 -6.20721,4.396777 0,0 -6.46585,-2.327707 -9.31082,-8.793553 -2.84497,-6.465848 5.43131,-12.155793 -2.84497,-6.465848 -8.27629,5.689946 -8.27629,5.172678 -9.56946,8.534917 -1.29316,3.362243 -1.03453,9.569455 -7.75901,5.431314 -6.724485,-4.138144 -1.5518,-5.94858 -14.483495,-6.207214 -12.9317,-0.258634 -11.12127,-2.069071 -18.10437,2.327705 -6.98312,4.396775 -6.72448,6.983114 -7.50038,8.276283 -0.77591,1.29317 28.96699,5.172679 6.20721,1.810438 -22.75978,-3.36224 -25.08749,-3.620873 -25.08749,-3.620873 0,0 -6.46584,-0.775904 5.43131,-4.138144 11.89716,-3.36224 -2.3277,-6.983114 14.4835,-3.36224 16.81119,3.620875 9.31082,3.103607 20.17344,4.65541 10.86262,1.551805 25.604755,9.052186 12.15579,1.551805 C 68.020705,30.518796 53.537225,28.449725 61.037595,24.828851 68.537985,21.207976 46.036835,6.983113 71.124315,20.690708 96.21181,34.398304 93.1082,34.915572 97.50498,35.43284 c 4.39677,0.517269 6.20721,7.500382 5.17268,0.517269 -1.03454,-6.983116 -15.00077,-18.880275 -4.91405,-15.776668 10.08672,3.103606 7.50038,-7.500383 12.41443,4.396776 4.91404,11.897158 5.43131,13.448963 5.43131,13.448963 0,0 -4.91404,5.431311 7.75902,-4.65541 12.67306,-10.086723 14.74213,-20.432078 11.63852,-11.121258 -3.10361,9.31082 -5.17268,8.276284 -5.43131,12.414427 -0.25864,4.138142 -10.60399,3.362241 2.06907,6.465845 12.67306,3.103608 15.00077,3.103608 15.00077,3.103608 l -27.4152,-26.63929 c 0,0 -7.24174,-9.8280872 -1.29317,2.586339 5.94858,12.414425 11.89716,18.363004 8.27629,18.104371 -3.62088,-0.258632 -10.60399,0 -27.15656,-6.207212 -16.552575,-6.207214 -22.501155,-6.724482 -25.604755,-7.500383 -3.10361,-0.775902 -14.74214,-4.138142 7.75901,5.948579 C 103.71219,40.605519 114.31618,52.502675 103.45356,40.605519 92.59094,28.708359 87.41826,23.794315 88.19416,21.725244"
       id="path9878-6" />
  </g>
</svg>
