<?xml version="1.0" encoding="UTF-8" standalone="no"?>
<!-- Created with Inkscape (http://www.inkscape.org/) -->

<svg
   width="155mm"
   height="117mm"
   viewBox="0 0 155 117"
   version="1.1"
   id="svg5"
   inkscape:version="1.1.1 (3bf5ae0d25, 2021-09-20)"
   sodipodi:docname="nark_glaza.svg"
   xmlns:inkscape="http://www.inkscape.org/namespaces/inkscape"
   xmlns:sodipodi="http://sodipodi.sourceforge.net/DTD/sodipodi-0.dtd"
   xmlns="http://www.w3.org/2000/svg"
   xmlns:svg="http://www.w3.org/2000/svg">
  <sodipodi:namedview
     id="namedview7"
     pagecolor="#ffffff"
     bordercolor="#666666"
     borderopacity="1.0"
     inkscape:pageshadow="2"
     inkscape:pageopacity="0.0"
     inkscape:pagecheckerboard="0"
     inkscape:document-units="mm"
     showgrid="false"
     width="150mm"
     inkscape:zoom="1.0230034"
     inkscape:cx="85.532466"
     inkscape:cy="241.93469"
     inkscape:window-width="1920"
     inkscape:window-height="1001"
     inkscape:window-x="-9"
     inkscape:window-y="-9"
     inkscape:window-maximized="1"
     inkscape:current-layer="layer1" />
  <defs
     id="defs2" />
  <g
     inkscape:label="Слой 1"
     inkscape:groupmode="layer"
     id="layer1">
    <circle
       style="fill:#241f1c;fill-opacity:1;stroke-width:0.264583"
       id="path2557"
       cx="46.451969"
       cy="44.988914"
       r="9.5098524" />
    <circle
       style="fill:#241f1c;fill-opacity:1;stroke-width:0.264583"
       id="path2557-9"
       cx="108.63177"
       cy="44.988918"
       r="9.5098524" />
    <path
       id="path2683"
       style="fill:#fd2d0b;stroke-width:0.264583;fill-opacity:1"
       d="m 112.65517,86.320198 c 0,9.898276 -15.802643,17.922412 -35.296184,17.922412 -19.49354,0 -35.296178,-8.024137 -35.296181,-17.922412 0,-9.898276 15.436875,1.463053 34.930417,1.463053 19.493544,-1e-6 35.661948,-11.36133 35.661948,-1.463053 z"
       sodipodi:nodetypes="sssss" />
    <path
       id="rect3604"
       style="fill:#fffefe;stroke-width:0.264583"
       d="m 62.190897,86.059652 7.487059,1.357828 -3.840517,9.601294 v 0 z"
       sodipodi:nodetypes="ccccc" />
    <path
       id="rect3604-3"
       style="fill:#fffefe;stroke-width:0.264583"
       d="m 91.272094,102.55087 7.487059,-1.35783 -4.20628,-9.235533 v 0 z"
       sodipodi:nodetypes="ccccc" />
    <path
       id="rect3604-3-2"
       style="fill:#fffefe;stroke-width:0.264583"
       d="m 61.063264,101.77496 -7.487059,-1.35783 3.866184,-9.574509 v 0 z"
       sodipodi:nodetypes="ccccc" />
    <path
       id="rect3604-7"
       style="fill:#fffefe;stroke-width:0.264583"
       d="m 90.332502,86.281369 -7.487059,1.357828 3.291872,9.784176 v 0 z"
       sodipodi:nodetypes="ccccc"
       inkscape:transform-center-x="-1.2801724"
       inkscape:transform-center-y="1.3716133" />
    <ellipse
       style="fill:#ff9a9a;fill-opacity:1;stroke-width:0.733203"
       id="path4078"
       cx="46.414711"
       cy="45.24691"
       rx="7.0951357"
       ry="6.8417373" />
    <circle
       style="fill:#ff9a9a;fill-opacity:1;stroke-width:0.892967"
       id="path4080"
       cx="108.90611"
       cy="44.531712"
       r="7.4067116" />
    <circle
       style="fill:#000000;fill-opacity:1;stroke-width:0.264583"
       id="path4803"
       cx="108.44889"
       cy="48.097908"
       r="3.6576355" />
    <circle
       style="fill:#000000;fill-opacity:1;stroke-width:0.264583"
       id="path4803-4"
       cx="45.720444"
       cy="47.915024"
       r="3.6576355" />
    <path
       style="fill:none;stroke:#ff0000;stroke-width:0.264583px;stroke-linecap:butt;stroke-linejoin:miter;stroke-opacity:1"
       d="m 50.045656,47.071367 c 0.606671,-0.606671 0.581618,-0.63831 1.422485,-1.163852 0.482346,-0.301466 0.651552,0.41407 1.29317,-0.387951 0.03066,-0.03833 -0.129315,-1.272339 -0.129315,-1.551805"
       id="path5105" />
    <path
       style="fill:none;stroke:#ff0000;stroke-width:0.264583px;stroke-linecap:butt;stroke-linejoin:miter;stroke-opacity:1"
       d="m 46.683416,43.191858 c 0.387951,-0.215527 0.951339,-0.256974 1.163852,-0.646583 0.223414,-0.409594 -1.68112,-2.159955 -1.68112,-1.939756 0,0.121923 0.154088,-0.195905 0.258633,-0.258633 0.394279,-0.236569 0.557104,0.04964 0.775903,-0.38795 0.199711,-0.399426 -0.176249,-0.396296 -0.387953,-0.517269 -0.184705,-0.105547 -0.48433,-0.517268 -0.646583,-0.517268"
       id="path5352" />
    <path
       style="fill:none;stroke:#ff0000;stroke-width:0.264583px;stroke-linecap:butt;stroke-linejoin:miter;stroke-opacity:1"
       d="m 43.579809,44.485028 c -0.453986,-2.437199 0.376044,-1.957406 -1.551803,-2.198389 -1.237424,-0.154678 -0.153776,-0.129318 -1.034536,-0.129318 -0.222647,0 0.131688,0.124579 0.258635,-0.129315 0.05648,-0.112966 0.378084,-1.0444 0.258633,-1.163852 -0.240707,-0.240707 -0.829606,-0.258635 -1.163852,-0.258635"
       id="path5453" />
    <path
       style="fill:none;stroke:#ff0000;stroke-width:0.227249px;stroke-linecap:butt;stroke-linejoin:miter;stroke-opacity:1"
       d="m 39.948838,47.205119 c 0.249522,-0.219736 0.485383,-0.473792 0.748568,-0.659206 0.118563,-0.08353 -0.03035,0.279125 0.09357,0.395523 0.651614,0.306039 -0.04592,-0.08708 0.467856,0.395523 0.177318,0.166561 0.620782,0 0.842141,0"
       id="path5554" />
    <path
       style="fill:none;stroke:#ff0000;stroke-width:0.264583px;stroke-linecap:butt;stroke-linejoin:miter;stroke-opacity:1"
       d="m 110.95393,44.614345 c 2.08761,1.365393 1.00396,-1.090019 1.68113,-1.293169 1.09318,-0.327956 0.83208,0.191151 1.42248,0.38795 0.16358,0.05453 0.35,-0.04182 0.51727,0 0.0935,0.02336 0.16225,0.129318 0.25863,0.129318 0.0431,0 -0.0305,-0.09884 0,-0.129318 0.0682,-0.06816 0.2008,-0.05221 0.25864,-0.129317 0.16357,-0.218099 0.13671,-0.532059 0.25863,-0.775902 0.0417,-0.08335 1.17676,-0.38795 0.64659,-0.38795"
       id="path5622" />
    <path
       style="fill:none;stroke:#ff0000;stroke-width:0.264583px;stroke-linecap:butt;stroke-linejoin:miter;stroke-opacity:1"
       d="m 110.95393,44.614345 c -0.68969,-0.431056 -1.80188,-0.524996 -2.06907,-1.293169 -0.21616,-0.621461 0.74028,-1.092608 1.03454,-1.68112 0.0983,-0.196594 0.12932,-0.426789 0.12932,-0.646586 0,-1.186588 -1.61946,-1.687103 -2.06907,-2.58634 -0.0431,-0.08621 0.17843,-0.07585 0.25863,-0.129315 0.18947,-0.126314 0.64658,-0.348675 0.64658,-0.646586"
       id="path5624" />
    <path
       style="fill:none;stroke:#ff0000;stroke-width:0.264583px;stroke-linecap:butt;stroke-linejoin:miter;stroke-opacity:1"
       d="m 106.42784,45.260929 c -0.17242,-0.431057 -0.34484,-0.862113 -0.51727,-1.29317 -0.0862,-0.215527 -0.31493,-0.421383 -0.25863,-0.646583 0.0725,-0.290153 0.82968,-0.409707 0.64659,-0.775901 -0.36152,-0.723033 -0.0873,-0.144394 -0.64659,-0.517269 -0.0359,-0.02392 0.0305,-0.09884 0,-0.129317 -0.66086,-0.660858 0.18036,0.542223 -0.51727,-0.387951 -0.23555,-0.314074 -0.43007,-0.709771 -0.64658,-1.034537 -0.0852,-0.127804 0,-0.636571 0,-0.775901"
       id="path5692" />
    <path
       style="fill:none;stroke:#ff0000;stroke-width:0.264583px;stroke-linecap:butt;stroke-linejoin:miter;stroke-opacity:1"
       d="m 103.97082,47.200684 c 0.009,-0.531963 -1.46908,-2.669066 -2.3277,-1.810437"
       id="path5793" />
    <path
       style="fill:none;stroke:#ff0000;stroke-width:0.264583px;stroke-linecap:butt;stroke-linejoin:miter;stroke-opacity:1"
       d="m 110.95393,44.614345 c 0.60348,0.603478 1.0346,1.454844 1.81044,1.810436 0.4847,0.222154 1.07491,-0.626399 1.55181,-0.387951 0.0862,0.04311 0.0431,0.21553 0.12931,0.258636 0.0386,0.01929 0.11004,-0.03856 0.12932,0 0.0386,0.07711 -0.061,0.197672 0,0.258632 0.1316,0.131601 0.90522,0.259901 0.90522,0"
       id="path5861" />
    <path
       style="fill:none;stroke:#ff0000;stroke-width:0.264583px;stroke-linecap:butt;stroke-linejoin:miter;stroke-opacity:1"
       d="m 102.03107,42.028006 c 0.0722,0.01111 2.25992,0.10576 2.45702,0.775901 0.15858,0.539192 -0.0919,1.120336 -0.12932,1.681121 -0.009,0.129029 -0.0914,0.29651 0,0.38795 0.39693,0.396925 0.10753,-0.07555 0.51727,0.129318 0.16457,0.08228 -0.15719,0.65123 -0.12932,0.646583 0.56728,-0.09455 1.12075,-0.258632 1.68112,-0.38795"
       id="path5962" />
    <path
       style="fill:none;stroke:#ff0000;stroke-width:0.264583px;stroke-linecap:butt;stroke-linejoin:miter;stroke-opacity:1"
       d="m 46.683416,43.191858 c 0.732795,0.129318 1.474504,0.560303 2.198389,0.387951 0.375062,-0.0893 0.312925,-0.707591 0.517265,-1.034534 0.06266,-0.100248 0.937154,-0.258636 1.034537,-0.258636 0.06096,0 0.0955,0.180039 0.129318,0.129318 0.07561,-0.113419 0.07869,-0.26139 0.129315,-0.387951 0.127219,-0.318045 0.258635,-0.552468 0.258635,-0.905219"
       id="path6063" />
  </g>
</svg>
