<?xml version="1.0" encoding="UTF-8" standalone="no"?>
<!-- Created with Inkscape (http://www.inkscape.org/) -->

<svg
   width="155mm"
   height="130mm"
   viewBox="0 0 155 130"
   version="1.1"
   id="svg5"
   inkscape:version="1.1.1 (3bf5ae0d25, 2021-09-20)"
   sodipodi:docname="uansday_hair.svg"
   xmlns:inkscape="http://www.inkscape.org/namespaces/inkscape"
   xmlns:sodipodi="http://sodipodi.sourceforge.net/DTD/sodipodi-0.dtd"
   xmlns="http://www.w3.org/2000/svg"
   xmlns:svg="http://www.w3.org/2000/svg">
  <sodipodi:namedview
     id="namedview7"
     pagecolor="#ffffff"
     bordercolor="#666666"
     borderopacity="1.0"
     inkscape:pageshadow="2"
     inkscape:pageopacity="0.0"
     inkscape:pagecheckerboard="0"
     inkscape:document-units="mm"
     showgrid="false"
     width="150mm"
     inkscape:zoom="1.0230034"
     inkscape:cx="240.95717"
     inkscape:cy="176.44126"
     inkscape:window-width="1920"
     inkscape:window-height="1001"
     inkscape:window-x="-9"
     inkscape:window-y="-9"
     inkscape:window-maximized="1"
     inkscape:current-layer="layer1"
     height="130mm" />
  <defs
     id="defs2" />
  <g
     inkscape:label="Слой 1"
     inkscape:groupmode="layer"
     id="layer1">
    <path
       id="path11286"
       style="fill:#000000;stroke-width:1.765;fill-opacity:1"
       d="m 138.36914,45.519564 c 0,12.284202 -28.64768,-5.172677 -62.072138,-5.172678 -33.424454,0 -65.693006,21.336388 -65.693006,9.052186 2e-6,-12.2842 32.527186,-32.0706 65.95164,-32.0706 33.424454,-1e-6 61.813504,15.906891 61.813504,28.191092 z"
       sodipodi:nodetypes="sssss" />
    <path
       style="fill:none;stroke:#3d3d3d;stroke-width:0.264583px;stroke-linecap:butt;stroke-linejoin:miter;stroke-opacity:1"
       d="m 12.67306,49.39907 c 3.561281,-4.222313 7.263593,-4.842393 11.638525,-7.759014 2.014461,-1.342975 0.04839,-0.282829 2.069071,-1.29317 0.134753,-0.06738 2.58634,-1.026292 2.58634,-1.293169"
       id="path11944" />
    <path
       style="fill:none;stroke:#000000;stroke-width:0.264583px;stroke-linecap:butt;stroke-linejoin:miter;stroke-opacity:1"
       d="m 12.67306,49.39907 c 2.069071,-0.689689 4.23191,-1.14446 6.207213,-2.06907 19.448742,-4.731534 3.886974,-1.817902 6.207214,-4.138142 0.658652,-0.658654 6.427997,-0.441571 6.983114,-1.551802 0.602247,-1.204492 -2.026275,-1.778342 -3.103605,-2.586339"
       id="path13365" />
    <path
       style="fill:none;stroke:#000000;stroke-width:0.264583px;stroke-linecap:butt;stroke-linejoin:miter;stroke-opacity:1"
       d="m 28.966996,39.053717 8.01765,4.138141"
       id="path13367" />
    <path
       style="fill:none;stroke:#3d3d3d;stroke-width:0.264583px;stroke-linecap:butt;stroke-linejoin:miter;stroke-opacity:1"
       d="m 14.081896,52.852833 c 0.872524,-0.290844 0.406964,-0.06802 1.371614,-0.822968 0.583147,-0.456377 1.910568,-1.534454 2.560344,-1.920259 0.527439,-0.313166 1.114615,-0.516437 1.645937,-0.822968 0.264015,-0.152318 0.487684,-0.365765 0.731526,-0.548645 0.274323,-0.182883 0.535614,-0.387009 0.822969,-0.548645 1.368519,-0.769792 2.862066,-1.224333 4.297721,-1.828819 0.841802,-0.354444 1.582218,-0.838369 2.377463,-1.280173 0.571447,-0.317468 1.260564,-0.620477 1.737378,-1.097291 0.185404,-0.185404 0.271799,-0.454681 0.457203,-0.640085 0.303239,-0.303239 0.274322,0.06887 0.274322,-0.182883"
       id="path13927" />
    <path
       style="fill:none;stroke:#3d3d3d;stroke-width:0.264583px;stroke-linecap:butt;stroke-linejoin:miter;stroke-opacity:1"
       d="m 12.253079,45.171799 c 3.25708,-3.057412 7.585998,-4.459367 11.43011,-6.583746 0.351672,-0.194345 0.616698,-0.616998 1.097291,-0.822968 1.33544,-0.572331 -0.595706,0.246599 1.097291,-0.274323 0.195426,-0.06013 0.3602,-0.194977 0.548645,-0.274323 1.600661,-0.673962 0.728435,-0.150339 1.737376,-0.822968"
       id="path13962" />
    <path
       style="fill:none;stroke:#3d3d3d;stroke-width:0.264583px;stroke-linecap:butt;stroke-linejoin:miter;stroke-opacity:1"
       d="m 138.36914,45.519564 c -2.94752,-2.652051 -6.38355,-5.121042 -10.16902,-6.382866 -0.49638,-0.16546 -0.95156,-0.646277 -1.46305,-0.731525 -1.11566,-0.185944 -0.50245,0.371109 -1.82882,-0.365766 -0.72669,-0.403714 -0.6238,-0.842589 -1.28017,-1.28017 -0.31067,-0.207108 -0.77457,-0.204404 -1.09729,-0.365766 -0.48769,-0.243842 0.54864,-0.18288 -0.18289,-0.18288"
       id="path13997" />
    <path
       style="fill:none;stroke:#3d3d3d;stroke-width:0.264583px;stroke-linecap:butt;stroke-linejoin:miter;stroke-opacity:1"
       d="m 136.61268,49.012316 c -4.20106,-2.842345 -9.20189,-4.326626 -13.71613,-6.583744 -0.27386,-0.13693 -0.23401,-0.542748 -0.54865,-0.731528 -0.47313,-0.283882 -1.13288,-0.218474 -1.46305,-0.548645"
       id="path14032" />
    <path
       style="fill:none;stroke:#3d3d3d;stroke-width:0.264583px;stroke-linecap:butt;stroke-linejoin:miter;stroke-opacity:1"
       d="m 137.80141,48.006465 c -2.91318,-1.456592 0.76774,0.395904 -7.63531,-4.846368 -0.88049,-0.549298 -1.76928,-1.090382 -2.69751,-1.554493 -0.0563,-0.02817 -0.35561,0.0013 -0.36576,0 -0.18413,-0.02167 -0.36836,-0.04817 -0.54864,-0.09144 -0.45442,-0.109059 -0.97448,-0.25332 -1.41734,-0.411483 -0.39689,-0.141748 -0.19553,-0.13172 -0.54864,-0.320045 -0.444,-0.236794 -0.95133,-0.282448 -1.41734,-0.457203 -0.16329,-0.06124 -0.41533,-0.313208 -0.50292,-0.365765 -0.49453,-0.296717 -1.0396,-0.519798 -1.5545,-0.777245"
       id="path14067" />
    <circle
       style="fill:#000000;fill-opacity:1;stroke:none;stroke-width:1.765;stroke-miterlimit:4;stroke-dasharray:none;stroke-opacity:1"
       id="path14124"
       cx="135.5154"
       cy="51.298336"
       r="3.1089902" />
    <circle
       style="fill:#000000;fill-opacity:1;stroke:none;stroke-width:1.765;stroke-miterlimit:4;stroke-dasharray:none;stroke-opacity:1"
       id="path14124-9"
       cx="135.91211"
       cy="55.735603"
       r="3.1089902" />
    <circle
       style="fill:#000000;fill-opacity:1;stroke:none;stroke-width:1.765;stroke-miterlimit:4;stroke-dasharray:none;stroke-opacity:1"
       id="path14124-6"
       cx="135.91211"
       cy="59.873741"
       r="3.1089902" />
    <circle
       style="fill:#000000;fill-opacity:1;stroke:none;stroke-width:1.765;stroke-miterlimit:4;stroke-dasharray:none;stroke-opacity:1"
       id="path14124-5"
       cx="136.04143"
       cy="64.529152"
       r="3.1089902" />
    <circle
       style="fill:#000000;fill-opacity:1;stroke:none;stroke-width:1.765;stroke-miterlimit:4;stroke-dasharray:none;stroke-opacity:1"
       id="path14124-1"
       cx="136.30006"
       cy="68.537979"
       r="3.1089902" />
    <circle
       style="fill:#000000;fill-opacity:1;stroke:none;stroke-width:1.765;stroke-miterlimit:4;stroke-dasharray:none;stroke-opacity:1"
       id="path14124-54"
       cx="12.866593"
       cy="54.291508"
       r="3.1089902" />
    <circle
       style="fill:#000000;fill-opacity:1;stroke:none;stroke-width:1.765;stroke-miterlimit:4;stroke-dasharray:none;stroke-opacity:1"
       id="path14124-9-1"
       cx="13.263307"
       cy="58.728775"
       r="3.1089902" />
    <circle
       style="fill:#000000;fill-opacity:1;stroke:none;stroke-width:1.765;stroke-miterlimit:4;stroke-dasharray:none;stroke-opacity:1"
       id="path14124-6-5"
       cx="13.263307"
       cy="62.866913"
       r="3.1089902" />
    <circle
       style="fill:#000000;fill-opacity:1;stroke:none;stroke-width:1.765;stroke-miterlimit:4;stroke-dasharray:none;stroke-opacity:1"
       id="path14124-5-0"
       cx="13.392625"
       cy="67.522324"
       r="3.1089902" />
    <circle
       style="fill:#000000;fill-opacity:1;stroke:none;stroke-width:1.765;stroke-miterlimit:4;stroke-dasharray:none;stroke-opacity:1"
       id="path14124-1-5"
       cx="13.651261"
       cy="71.531151"
       r="3.1089902" />
    <path
       sodipodi:type="star"
       style="fill:#000000;fill-opacity:1;stroke:none;stroke-width:6.67087;stroke-miterlimit:4;stroke-dasharray:none;stroke-opacity:1"
       id="path14353"
       inkscape:flatsided="false"
       sodipodi:sides="2"
       sodipodi:cx="20.527792"
       sodipodi:cy="271.50449"
       sodipodi:r1="23.950336"
       sodipodi:r2="11.975169"
       sodipodi:arg1="0.93749895"
       sodipodi:arg2="2.5082953"
       inkscape:rounded="0"
       inkscape:randomized="0"
       d="M 34.701743,290.81038 10.874842,278.59146 6.353841,252.19859 30.180742,264.41751 Z"
       transform="matrix(0.21195295,0.13480616,-0.13480616,0.21195295,45.795124,11.073076)"
       inkscape:transform-center-x="-0.29577166"
       inkscape:transform-center-y="-0.48228078" />
    <path
       sodipodi:type="star"
       style="fill:#000000;fill-opacity:1;stroke:none;stroke-width:6.67087;stroke-miterlimit:4;stroke-dasharray:none;stroke-opacity:1"
       id="path14353-4"
       inkscape:flatsided="false"
       sodipodi:sides="2"
       sodipodi:cx="20.527792"
       sodipodi:cy="271.50449"
       sodipodi:r1="23.950336"
       sodipodi:r2="11.975169"
       sodipodi:arg1="0.93749895"
       sodipodi:arg2="2.5082953"
       inkscape:rounded="0"
       inkscape:randomized="0"
       transform="matrix(0.21195295,0.13480616,-0.13480616,0.21195295,168.55003,8.8602352)"
       inkscape:transform-center-x="-0.29577166"
       inkscape:transform-center-y="-0.48228078"
       d="M 34.701743,290.81038 10.874842,278.59146 6.353841,252.19859 30.180742,264.41751 Z" />
    <path
       sodipodi:type="star"
       style="fill:#ff2500;fill-opacity:1;stroke:none;stroke-width:6.67087;stroke-miterlimit:4;stroke-dasharray:none;stroke-opacity:1"
       id="path14479"
       inkscape:flatsided="false"
       sodipodi:sides="4"
       sodipodi:cx="210.65424"
       sodipodi:cy="214.07555"
       sodipodi:r1="47.311066"
       sodipodi:r2="23.655533"
       sodipodi:arg1="0.57940683"
       sodipodi:arg2="1.364805"
       inkscape:rounded="0"
       inkscape:randomized="0"
       d="m 250.24355,239.97966 -34.75087,-2.74869 -30.74256,16.43389 2.74869,-34.75087 -16.43389,-30.74256 34.75087,2.74869 30.74256,-16.43389 -2.74869,34.75087 z"
       transform="matrix(0.06544822,-0.04597602,0.04597602,0.06544822,-10.195992,56.453328)" />
    <path
       sodipodi:type="star"
       style="fill:#ff2500;fill-opacity:1;stroke:none;stroke-width:6.67087;stroke-miterlimit:4;stroke-dasharray:none;stroke-opacity:1"
       id="path14479-5"
       inkscape:flatsided="false"
       sodipodi:sides="4"
       sodipodi:cx="210.65424"
       sodipodi:cy="214.07555"
       sodipodi:r1="47.311066"
       sodipodi:r2="23.655533"
       sodipodi:arg1="0.57940683"
       sodipodi:arg2="1.364805"
       inkscape:rounded="0"
       inkscape:randomized="0"
       transform="matrix(0.06544822,-0.04597602,0.04597602,0.06544822,112.54145,53.090902)"
       d="m 250.24355,239.97966 -34.75087,-2.74869 -30.74256,16.43389 2.74869,-34.75087 -16.43389,-30.74256 34.75087,2.74869 30.74256,-16.43389 -2.74869,34.75087 z" />
  </g>
</svg>
